<?xml version="1.0" encoding="utf-8"?>
<!-- Generator: Adobe Illustrator 28.2.0, SVG Export Plug-In . SVG Version: 6.00 Build 0)  -->
<svg version="1.1" id="Layer_1" xmlns="http://www.w3.org/2000/svg" xmlns:xlink="http://www.w3.org/1999/xlink" x="0px" y="0px"
	 viewBox="0 0 844.04 652.23" style="enable-background:new 0 0 844.04 652.23;" xml:space="preserve">
<style type="text/css">
	.st0{fill:#FFFFFF;}
	.st1{fill:#AF1C1C;}
	.st2{fill:#008001;}
	.st3{fill:#FFED29;}
</style>
<g>
	<path class="st0" d="M319.67,278.1H185.95c-1,0-1.81-0.81-1.81-1.81v-13.44c0-1,0.81-1.81,1.81-1.81h133.72
		c1,0,1.81,0.81,1.81,1.81v13.44C321.48,277.29,320.67,278.1,319.67,278.1z"/>
	<path class="st0" d="M268.73,215.61c-0.72-0.24-83.63,0-83.63,0v-27.4l112.95-1.44L268.73,215.61z"/>
	<polygon class="st0" points="244.7,253.91 304.14,186.77 319.2,186.77 320.16,209.21 285.24,253.91 	"/>
	<polygon class="st0" points="185.58,352.6 185.58,331.93 221.79,286.27 258,286.27 230.92,322.8 324.25,324 324.25,350.68 	"/>
	<polygon class="st1" points="357.97,351 357.57,326.88 390.58,351 	"/>
	<polygon class="st1" points="387.45,278.1 389.38,313.19 355.25,290.84 355.25,186.77 389.38,209.12 389.38,252.38 405,251.9 
		405,278.1 	"/>
	<path class="st1" d="M259,143.76l2.04,33.4l-11.66-0.6l-2.76-46.14c0,0,143.71,13.42,158.37,80.55
		C405,210.97,342.51,143.28,259,143.76z"/>
	<path class="st0" d="M282.43,122.21l-2.16-24.19c0,0,85.56,18.1,121.12,82.03C401.39,180.05,365.34,132.14,282.43,122.21z"/>
	<path class="st1" d="M421.34,210.33h-9.25c0,0,1.8-15.74-5.17-26.92h23.31C430.23,183.41,421.94,209.25,421.34,210.33z"/>
	<path class="st1" d="M428.3,210.33c-0.06-0.75,2.93-12.64,3.37-13.74c0.92-2.31,2.02-4.55,3.27-6.69c1-1.71,2.51-5.06,4.22-6.13
		c1.54-0.97,5.18,0.14,7,0.36c2.7,0.32,5.39,0.69,8.06,1.16c5.32,0.93,10.59,2.25,15.56,4.37c9.46,4.03,18,11.48,20.8,21.37
		c2.6,9.19-0.05,19.06-3.94,27.78c-2.6,5.84-5.76,11.44-9.42,16.68c-0.85,1.22-1.77,2.55-1.69,4.03c0.15,3.01,3.86,4.2,6.75,5.06
		c8.64,2.56,15.89,9,20.2,16.91s5.79,17.2,5.01,26.17c-0.94,10.81-5.38,21.67-13.75,28.57c-7.18,5.92-16.54,8.47-25.71,10.04
		c-8.9,1.52-17.94,2.27-26.97,2.23c-4.4-0.02-9.03-0.29-12.75-2.64c0.24-7.37,0.49-14.75,0.73-22.12
		c7.32-0.54,14.69,0.31,21.99-0.32c7.31-0.63,14.91-3.01,19.61-8.65c5.34-6.41,5.7-16.13,1.85-23.53s-11.36-12.48-19.44-14.55
		c-8.08-2.07-16.67-1.36-24.74,0.74c0.25-8.92,0.49-17.84,0.74-26.75c9.72,1.98,20.71-0.36,27.4-7.69c6.7-7.32,7.62-19.9,0.67-26.98
		c-3.55-3.62-8.59-5.48-13.63-6.09c-5.03-0.61-10.13-0.09-15.17,0.44C428.31,210.37,428.3,210.35,428.3,210.33z"/>
	<path class="st0" d="M410.89,348.5h-3.5c-0.26,0-0.47-0.21-0.47-0.47V216.04c0-0.26,0.21-0.47,0.47-0.47h3.5
		c0.26,0,0.47,0.21,0.47,0.47v131.99C411.37,348.29,411.15,348.5,410.89,348.5z"/>
	<path class="st0" d="M427.4,345.86h-3.5c-0.26,0-0.47-0.21-0.47-0.47V213.4c0-0.26,0.21-0.47,0.47-0.47h3.5
		c0.26,0,0.47,0.21,0.47,0.47v131.99C427.87,345.65,427.66,345.86,427.4,345.86z"/>
	<path class="st2" d="M653.77,300.67c7.43,5.98,14.85,11.96,22.28,17.94c-8.95,13.39-23.62,22.28-39.16,26.52
		c-27.82,7.58-59.28,0.44-80.89-18.65c-21.61-19.09-32.59-49.6-27.79-78.03c5.07-30.04,26.1-52.59,53.27-64.59
		c15.04-6.64,32.42-8.37,48.53-5.31c16.59,3.15,32.16,11.48,43.99,23.54c-6.1,5.96-12.21,11.93-18.31,17.89
		c-16.51-11.28-36.87-19.84-56.21-14.78c-13.61,3.55-24.96,13.65-31.87,25.91c-9.03,16.02-10.78,36.14-3.91,53.2
		c6.88,17.06,22.48,30.51,40.53,34.03c18.05,3.52,37.94-3.38,49.34-17.8C653.64,300.57,653.7,300.62,653.77,300.67z"/>
	<path class="st3" d="M268.41,303.41l-0.64-17.14c0,0,104.3,0.24,140.11,64.41C407.88,350.68,341.87,295.08,268.41,303.41z"/>
	<path class="st0" d="M434.56,178.12c0,0,24.75-62.96,124.97-88.44l-3.12,23.55C556.4,113.24,474.69,133.66,434.56,178.12z"/>
	<path class="st3" d="M468.92,180.05c0,0-9.85-4.09-10.57-3.85c0,0,73.78-62.48,143.23-56l-1.44,47.82l-11.78,2.66l-0.48-38.71
		C587.88,131.98,529,129.82,468.92,180.05z"/>
	<path class="st3" d="M484.18,183.07c9.81-5.84,47.11-26.6,90.93-32.88c1.26-0.18,2.2-1.27,2.2-2.54v-0.02c0-1.63-1.5-2.85-3.1-2.52
		c-13.87,2.9-70.56,15.59-92.98,33.68c-0.89,0.72-1.21,1.94-0.77,3c0.01,0.02,0.02,0.04,0.03,0.06
		C481.09,183.3,482.83,183.87,484.18,183.07z"/>
	<path class="st3" d="M497.1,197.13c8.15-4.09,40.45-19.24,77.66-22.64c1.45-0.13,2.55-1.34,2.55-2.8v-0.63
		c0-1.76-1.59-3.08-3.32-2.77c-13.28,2.44-62.75,12.14-79.82,23.96c-1.36,0.94-1.59,2.85-0.53,4.11c0.02,0.02,0.03,0.04,0.05,0.06
		C494.52,197.43,495.93,197.71,497.1,197.13z"/>
	<path class="st3" d="M500.89,213.11L500.89,213.11c0-1.02,0.63-1.94,1.59-2.3c8.09-3.05,44.35-16.66,45.64-16.34
		c1.29,0.32,3.44,1.51,2.26,3.55c-0.27,0.48-0.72,0.83-1.23,1.02c-4.83,1.82-34.9,13.13-45.04,16.41
		C502.51,215.96,500.89,214.77,500.89,213.11z"/>
	<path class="st3" d="M521.31,255.6v-3.95c0-0.63-0.63-1.06-1.22-0.84l-22.52,8.69c-0.33,0.13-0.56,0.44-0.57,0.8
		c-0.05,1.24,0.03,4,1.56,4.09c0.11,0.01,0.21-0.02,0.31-0.05l21.85-7.9C521.08,256.31,521.31,255.98,521.31,255.6z"/>
	<path class="st3" d="M497.02,239.33l-0.02-1.98c0-0.5,0.29-0.96,0.75-1.16l27.42-12.01c0.41-0.18,0.88-0.13,1.23,0.13
		c0.69,0.51,1.75,1.46,1.88,2.59c0.06,0.53-0.26,1.03-0.75,1.24l-28.77,12.33C497.95,240.82,497.03,240.22,497.02,239.33z"/>
	<path class="st3" d="M445.04,243.81h-5.99c-0.45,0-0.81-0.36-0.81-0.81v-25.54c0-0.45,0.36-0.81,0.81-0.81h5.99
		c0.45,0,0.81,0.36,0.81,0.81V243C445.85,243.45,445.49,243.81,445.04,243.81z"/>
	<path class="st3" d="M444.17,316.31h-7.1c-0.53,0-0.96-0.43-0.96-0.96V285.9c0-0.53,0.43-0.96,0.96-0.96h7.1
		c0.53,0,0.96,0.43,0.96,0.96v29.45C445.13,315.88,444.7,316.31,444.17,316.31z"/>
	<path class="st3" d="M451.37,306.94l-3.4-4.73c-0.25-0.35-0.17-0.84,0.18-1.1l15.05-10.82c0.35-0.25,0.84-0.17,1.1,0.18l3.4,4.73
		c0.25,0.35,0.17,0.84-0.18,1.1l-15.05,10.82C452.11,307.37,451.62,307.29,451.37,306.94z"/>
	<path class="st3" d="M581.26,226.43c0.19-0.14,0.4-0.27,0.61-0.39c2.46-1.46,5.26-3.78,7.98-4.63c0.53,2.21,0.08,5.06,0.08,7.35
		c0,2.5,0,5,0,7.5c0,5,0,10,0,15.01c0,10,0,20.01,0,30.01c0,6.3,0,12.61,0,18.91c-5.16-1.49-10.54-3.1-14.45-6.79
		c-0.72-0.68-1.4-1.47-1.64-2.43c-0.35-1.43,0.41-2.97,1.59-3.86c1.18-0.88,2.7-1.2,4.17-1.24c0.27-19.11,0.54-38.22,0.81-57.34
		c0.01-0.51,0.02-1.05,0.28-1.5C580.82,226.81,581.03,226.61,581.26,226.43z"/>
	<path class="st3" d="M513.38,292.36l9.45-4.17l5.46,12.01c0,0-11.23,4.97-12.67,3.69L513.38,292.36z"/>
	<path class="st3" d="M144.97,401.38l23.79-28.36c0,0,159.82-30.52,249.82,8.89c0,0,39.46-41.82,257.47-16.82l0.92,0.16l22.11,26.44
		c0,0-197.23-42.58-279.06-0.76C420.02,390.93,255.64,349.83,144.97,401.38z"/>
	<g>
		<g>
			<path class="st3" d="M85.72,473.46c-0.13-16.74-0.27-33.47-0.4-50.21c-0.01-0.87,0.21-2.14,0.93-2.73
				c0.92-0.76,2.57-0.32,3.64-0.26c3.21,0.17,6.44,0.19,9.65,0.14c6.51-0.1,13.02-0.5,19.54-0.54c10.57-0.06,21.42,0.92,30.97,5.45
				c8.8,4.17,16.09,11.24,21.09,19.6c10.3,17.25,10.28,40.23-0.26,57.33c-6.17,10.01-15.78,17.98-26.98,21.56
				c-9.08,2.91-18.8,2.91-28.33,2.89c-8.86-0.02-17.71-0.04-26.57-0.06c-0.93,0-2.02-0.08-2.54-0.86c-0.3-0.46-0.32-1.04-0.32-1.59
				C85.99,507.28,85.86,490.37,85.72,473.46z M98.49,431.97c0,27.61,0,55.09,0,82.67c0.56,0.07,0.99,0.16,1.42,0.16
				c8.92,0.04,17.84,0.2,26.76,0.05c8.74-0.14,16.76-2.75,23.67-8.19c8.07-6.35,13.06-14.59,14.39-24.87
				c1.44-11.13,0.92-21.94-5.44-31.75c-7.46-11.51-18.18-17.52-31.73-18.13c-8.9-0.4-17.84-0.08-26.76-0.07
				C100.09,431.86,99.36,431.93,98.49,431.97z"/>
			<path class="st3" d="M567.18,465.14c8.59-7.67,18.38-10.66,29.36-10.45c6.64,0.13,12.92,1.41,18.45,5.25
				c4.81,3.34,7.45,8.28,8.31,13.84c0.86,5.52,0.97,11.17,1.1,16.78c0.25,10.65,0.26,21.3,0.4,31.95c0.02,1.26,0.27,2.51,0.44,4.08
				c-3.57,0-7,0.06-10.42-0.08c-0.42-0.02-1.1-1.11-1.13-1.73c-0.13-2.68-0.05-5.37-0.05-8.39c-1.82,1.75-3.38,3.23-4.92,4.73
				c-6.64,6.46-14.75,8.14-23.59,7.05c-5.87-0.72-11.39-2.53-15.67-6.92c-3.39-3.48-5.29-7.58-5.51-12.57
				c-0.29-6.38,1.2-12.01,5.88-16.53c3.36-3.25,7.52-5.05,11.95-6.33c9.25-2.69,18.75-3.03,28.28-2.78c2.1,0.05,2.74-0.59,2.61-2.65
				c-0.57-9.08-5.64-14.16-14.76-14.8c-5.61-0.4-11.08,0.22-16.2,2.67c-1.99,0.95-3.91,2.15-5.66,3.49
				c-1.45,1.11-2.36,1.11-3.51-0.35C570.88,469.29,569.06,467.32,567.18,465.14z M602.97,492.75c-7.3-0.05-15.27,0.09-21.5,4.33
				c-1.28,0.87-2.42,1.94-3.27,3.23c-1.3,1.97-1.86,4.38-1.73,6.74c0.17,3.16,1.59,6.27,4.01,8.3c3.08,2.58,7.36,3.2,11.38,3.13
				c3.88-0.07,7.85-0.71,11.18-2.69c3.27-1.95,5.71-5.09,7.3-8.54c1.74-3.78,2.53-7.99,2.26-12.15c-0.04-0.57-0.11-1.17-0.47-1.6
				c-0.53-0.63-1.46-0.69-2.28-0.69c-1.94-0.02-3.88-0.03-5.82-0.05C603.68,492.76,603.33,492.75,602.97,492.75z"/>
			<path class="st3" d="M465.74,491.35c0.33,21.3-15.25,36.96-37.24,37.1c-21.62,0.14-37.59-14.63-37.78-36.54
				c-0.19-21.85,14.95-35.41,32.79-37.07C450.04,452.38,466.15,470.76,465.74,491.35z M402.91,491.58
				c0.76,3.55,1.05,7.29,2.37,10.61c3.46,8.73,10,13.89,19.4,15.28c5.29,0.78,10.42,0.03,15.08-2.38
				c12.05-6.23,16.35-20.87,11.89-33.31c-2.71-7.57-7.78-13.04-15.77-15.25c-7.21-1.99-14.28-1.66-20.74,2.41
				C406.91,474.12,403.43,481.91,402.91,491.58z"/>
			<path class="st3" d="M758.73,456.14c-0.74,2.11-1.27,3.79-1.91,5.42c-4.01,10.25-8.03,20.49-12.08,30.72
				c-3.87,9.75-7.82,19.46-11.67,29.22c-3.33,8.44-6.4,16.99-9.94,25.35c-2.02,4.77-4.66,9.29-9.17,12.36
				c-3.06,2.08-6.49,3.33-10.06,3.34c-3.99,0.01-7.99-0.76-11.95-1.38c-0.43-0.07-1.02-1.4-0.94-2.08c0.35-2.81,0.94-5.58,1.42-8.27
				c2.42,0.37,4.67,0.98,6.94,1.02c6.84,0.15,10.91-2.84,13.32-9.37c1.6-4.33,3.15-8.68,4.94-12.93c1.38-3.28-0.56-5.8-1.6-8.48
				c-2.41-6.23-5.02-12.4-7.58-18.57c-2.51-6.04-5.1-12.05-7.6-18.1c-2.47-5.98-4.84-11.99-7.29-17.98c-1.07-2.61-2.22-5.2-3.32-7.8
				c-0.28-0.67-0.5-1.36-0.89-2.45c4.53,0,8.71-0.15,12.86,0.13c0.76,0.05,1.61,1.75,2.05,2.84c3.61,8.97,7.16,17.97,10.68,26.98
				c2.87,7.34,5.66,14.71,8.51,22.06c0.38,0.97,0.93,1.88,1.54,3.1c0.81-1.91,1.61-3.63,2.28-5.39c2.62-6.88,5.22-13.77,7.81-20.67
				c2.87-7.66,5.71-15.34,8.57-23c0.57-1.54,1.1-3.1,1.83-4.56c0.32-0.63,1.1-1.42,1.7-1.44
				C750.83,456.08,754.49,456.14,758.73,456.14z"/>
			<path class="st3" d="M495.51,466.83c1.5-1.72,2.86-3.59,4.53-5.12c5.89-5.39,12.93-7.42,20.85-6.99
				c7.15,0.38,13.5,2.47,18.26,8.05c3.85,4.51,5.92,9.87,5.97,15.79c0.12,15.08,0.06,30.16,0.07,45.23c0,0.82,0,1.63,0,2.79
				c-3.6,0-7.02,0.06-10.43-0.1c-0.34-0.02-0.89-1.36-0.9-2.1c-0.06-8.1-0.04-16.2-0.04-24.31c0-5.55,0.13-11.11-0.04-16.65
				c-0.18-6.17-1.5-12.04-7.24-15.55c-2.01-1.23-4.51-1.95-6.87-2.26c-5.45-0.71-10.59,0.44-15.04,3.82
				c-4.79,3.64-7.56,8.72-7.95,14.52c-0.71,10.53-0.73,21.11-1,31.67c-0.08,3-0.09,6,0.02,9c0.06,1.61-0.56,2.08-2.09,2.02
				c-2.4-0.1-4.81-0.15-7.2,0.01c-1.9,0.13-2.22-0.69-2.22-2.37c0.07-15,0.16-30.01,0.06-45.01c-0.05-6.82-0.46-13.64-0.85-20.45
				c-0.11-1.87,0.37-2.62,2.3-2.52c2.32,0.12,4.65,0.11,6.97,0c1.74-0.08,2.44,0.51,2.37,2.31c-0.11,2.68-0.03,5.36-0.03,8.04
				C495.18,466.72,495.34,466.77,495.51,466.83z"/>
			<path class="st3" d="M292.51,465.68c-2.88,2.63-5.58,5.17-8.41,7.56c-0.31,0.26-1.53-0.12-1.99-0.56
				c-2.76-2.66-5.7-4.89-9.43-6.16c-4.08-1.39-8.17-1.29-12.2-0.55c-5.65,1.04-10.58,3.65-13.81,8.67
				c-4.38,6.82-5.98,14.23-4.43,22.24c1.28,6.59,4.17,12.21,9.72,16.28c5.38,3.94,11.35,5.02,17.82,4.08
				c5.08-0.74,9.31-2.94,12.55-6.98c0.35-0.44,0.93-0.7,1.72-1.29c2.35,2.45,4.72,4.84,6.95,7.36c0.34,0.39,0.33,1.63-0.02,2.01
				c-3.32,3.66-7.41,6.23-12.05,7.89c-7.39,2.65-14.98,3.07-22.56,1.29c-7.45-1.76-14.05-5.24-18.91-11.4
				c-6.19-7.85-8.72-16.82-8.21-26.77c0.62-12.01,5.46-21.83,15.4-28.67c5.88-4.04,12.6-5.85,19.87-6.01
				c10.21-0.22,19.07,2.84,26.66,9.63C291.59,464.64,291.92,465.05,292.51,465.68z"/>
			<path class="st3" d="M344.53,515.25c0,3.64,0.04,6.76-0.05,9.88c-0.01,0.39-0.61,0.95-1.05,1.12c-6.78,2.53-13.77,3.13-20.72,1.2
				c-5.15-1.43-8.27-5.12-9.72-10.39c-1.49-5.39-1.28-10.84-1.28-16.3c-0.01-10.8-0.06-21.61,0.05-32.41
				c0.02-2.05-0.63-2.57-2.56-2.49c-3.59,0.13-7.2-0.02-10.8,0.06c-1.48,0.03-1.98-0.5-1.93-1.96c0.09-2.46,0.02-4.93,0.02-7.72
				c5.05,0,9.95,0,15.08,0c0.06-1.1,0.13-1.89,0.13-2.68c0.01-5.25,0.05-10.5-0.02-15.75c-0.02-1.46,0.44-1.99,1.92-1.94
				c2.55,0.09,5.1,0.11,7.65-0.01c1.7-0.08,2.21,0.55,2.18,2.21c-0.08,5.1-0.03,10.2-0.03,15.3c0,0.81,0,1.62,0,2.71
				c6.97,0,13.68,0,20.54,0c0,3.32,0,6.36,0,9.65c-0.83,0.06-1.62,0.15-2.4,0.15c-5.32,0.01-10.65,0.06-15.97-0.02
				c-1.67-0.02-2.2,0.56-2.19,2.22c0.06,11.85,0.01,23.7,0.06,35.56c0.01,2.17,0.05,4.39,0.51,6.49c0.88,4.01,3.01,7.27,8.27,7.38
				c3.3,0.06,6.62-0.83,9.93-1.35C342.76,516.06,343.35,515.71,344.53,515.25z"/>
			<path class="st3" d="M657.11,467.07c1.34-1.53,2.63-3.11,4.03-4.58c4.83-5.06,10.8-7.62,17.76-7.69c7.59-0.08,6.36-0.6,6.02,6.54
				c-0.08,1.78-0.31,3.55-0.5,5.59c-1.24-0.08-2.34-0.1-3.43-0.22c-6.75-0.79-12.83,0.53-17.59,5.75c-2.75,3.01-4.2,6.69-4.85,10.63
				c-1.93,11.7-0.64,23.5-1,35.26c-0.07,2.17-0.07,4.35,0.01,6.53c0.05,1.34-0.41,1.89-1.8,1.85c-2.55-0.08-5.1-0.09-7.65,0
				c-1.65,0.06-2.24-0.51-2.22-2.2c0.08-6,0.08-12.01,0.02-18.01c-0.16-15.83-0.33-31.66-0.6-47.49c-0.03-2.03,0.43-2.9,2.58-2.73
				c2.16,0.16,4.35,0.11,6.52,0.01c1.64-0.07,2.31,0.51,2.25,2.2c-0.1,2.77-0.03,5.55-0.03,8.32
				C656.81,466.91,656.96,466.99,657.11,467.07z"/>
			<path class="st3" d="M198.45,456.26c3.75,0,7.38,0,11.28,0c0.06,0.83,0.16,1.62,0.16,2.4c0.01,21.74-0.02,43.49,0.05,65.23
				c0.01,2.11-0.62,2.74-2.67,2.63c-2.89-0.15-5.8-0.04-8.83-0.04C198.45,502.94,198.45,479.67,198.45,456.26z"/>
			<path class="st3" d="M359.75,456.14c3.71,0,6.99-0.05,10.28,0.06c0.45,0.02,0.99,0.8,1.25,1.34c0.21,0.43,0.05,1.03,0.05,1.55
				c0,21.51-0.03,43.02,0.05,64.53c0.01,2.2-0.45,3.17-2.83,2.92c-2-0.21-4.05-0.18-6.06,0c-2.14,0.19-2.8-0.51-2.79-2.71
				c0.09-14.54,0.05-29.08,0.05-43.62c0-7.12,0-14.24,0-21.36C359.75,458.05,359.75,457.24,359.75,456.14z"/>
			<path class="st3" d="M203.94,437.25c-4.92-0.01-8.17-3.61-8.38-8.76c-0.16-4,3.74-8.34,8.52-8.33c4.56,0,8.63,4,8.62,8.54
				C212.7,433.39,208.37,437.77,203.94,437.25z"/>
			<path class="st3" d="M365.58,437.25c-4.77,0-8.45-3.67-8.51-8.47c-0.05-4.77,3.73-8.58,8.5-8.57c4.83,0.01,8.51,3.73,8.48,8.57
				C374.01,433.65,370.42,437.25,365.58,437.25z"/>
		</g>
	</g>
</g>
</svg>
